<?xml version="1.0" encoding="utf-8"?>
<!-- Generator: Adobe Illustrator 27.3.1, SVG Export Plug-In . SVG Version: 6.00 Build 0)  -->
<svg version="1.1" id="Layer_1" xmlns="http://www.w3.org/2000/svg" xmlns:xlink="http://www.w3.org/1999/xlink" x="0px" y="0px"
	 viewBox="0 0 919.1 256.4" style="enable-background:new 0 0 919.1 256.4;" xml:space="preserve">
<style type="text/css">
	.st0{fill:#18193A;}
	.st1{fill:url(#SVGID_1_);}
	.st2{fill:url(#SVGID_00000013186468081476805620000000912914251396371375_);}
	.st3{fill:none;}
	.st4{fill:url(#SVGID_00000129168327183296578800000010219752029141414296_);}
	.st5{fill:url(#SVGID_00000134233502127287693130000011184913090773305473_);}
	.st6{fill:url(#SVGID_00000180354700637211492470000011342987509666923430_);}
	.st7{fill:url(#SVGID_00000108998579678756597870000004940309354901488814_);}
	.st8{fill:url(#SVGID_00000028299334381254309690000002041001377458042515_);}
	.st9{fill:url(#SVGID_00000136408607562414851210000016306002299556114561_);}
	.st10{fill:url(#path58_00000013898158925344427140000011788529549582851735_);}
	.st11{fill:url(#SVGID_00000026146763009955624540000001186345856172304539_);}
	.st12{fill:url(#SVGID_00000067919378337036863680000004203840704599922560_);}
	.st13{fill:url(#path36_00000068643828051262389170000018316773926251556797_);}
</style>
<g>
	<path id="path244_00000133531235917314694920000007240418280541212090_" class="st0" d="M380.5,225.3h-9.8v-98.3h9.8V225.3"/>
	<path id="path246_00000119119030266853015050000007871270029994853250_" class="st0" d="M464.1,225.3h-9.8v-38.2
		c0-8.7-1.9-15.4-5.8-20.1c-3.9-4.7-9.7-7.1-17.3-7.1c-6.1,0-11.1,1.7-14.9,5c-5,4.4-7.4,11.3-7.4,20.6v39.8H399v-72.6h9.3v10.5
		c2.8-4,6.3-7,10.5-9.1c4.2-2.1,8.7-3.1,13.5-3.1c9.1,0,16.5,2.7,22,8.2c6.5,6.4,9.7,15.7,9.7,27.9V225.3"/>
	<path id="path248_00000070828363726730992260000010392521343056957365_" class="st0" d="M512.5,161.6h-18.1v63.7h-9.8v-63.7h-11.3
		v-8.9h11.3v-1.5c0-7.3,2.3-13.1,6.9-17.5c4.6-4.4,10.9-6.6,19-6.6h2v8.9h-2c-2.4,0-4.5,0.3-6.2,0.8c-6.6,1.9-9.8,6.8-9.8,14.5v1.5
		h18.1V161.6"/>
	<path id="path250_00000008109710435435668130000008530307356749151882_" class="st0" d="M531.5,225.3h-9.8v-72.6h9.8V225.3z
		 M531.5,143.8h-9.8v-16.7h9.8V143.8"/>
	<path id="path252_00000088849138882576849990000012823744435164823722_" class="st0" d="M613.3,225.3h-9.8v-38.2
		c0-8.7-1.9-15.4-5.8-20.1c-3.9-4.7-9.6-7.1-17.3-7.1c-6.1,0-11.1,1.7-14.9,5c-5,4.4-7.4,11.3-7.4,20.6v39.8h-9.8v-72.6h9.3v10.5
		c2.8-4,6.3-7,10.5-9.1c4.2-2.1,8.7-3.1,13.5-3.1c9.1,0,16.5,2.7,22,8.2c6.5,6.4,9.7,15.7,9.7,27.9V225.3"/>
	<path id="path254_00000086689652269882045250000000245058613258206363_" class="st0" d="M639.1,225.3h-9.8v-72.6h9.8V225.3z
		 M639.1,143.8h-9.8v-16.7h9.8V143.8"/>
	<path id="path256_00000080185460572972021420000014930277724716259736_" class="st0" d="M692.7,161.6h-16.9v63.7H666v-63.7h-15.1
		v-8.9H666v-25.6h9.8v25.6h16.9V161.6"/>
	<path id="path258_00000143578464755731492310000002936160911939330699_" class="st0" d="M762.7,152.7l-42,98.1h-10.5l12.1-28.8
		l-28.6-69.3h11.7l22.8,56.6l23.9-56.6H762.7"/>
	<path id="path260_00000001661534501287965430000013129952014540844944_" class="st0" d="M793.5,185.6v20.1c0.3,0.1,0.8,0.3,1.6,0.4
		c0.8,0.2,2,0.2,3.6,0.2c4.1,0,7.5-0.7,10.1-2.1c3.6-2,5.4-5.2,5.4-9.7c0-3.5-1.1-5.7-3.2-6.8C808.3,186.3,802.5,185.6,793.5,185.6
		L793.5,185.6z M793.5,150.5v16.9h2.5c5.7,0,9.6-0.4,11.5-1.2c2.7-1.1,4-3.5,4-7.3c0-3.5-1.2-5.8-3.6-6.8
		C805.6,151,800.8,150.5,793.5,150.5L793.5,150.5z M799.7,225.3h-28.5v-94.5h32.2c9.5,0,16.7,2.1,21.7,6.2c5,4.1,7.5,10,7.5,17.6
		v1.7c0,3.2-0.6,5.9-1.7,8.2c-1.8,3.7-5.1,7-10,9.7c5.7,2.2,9.9,5,12.5,8.5c2.6,3.5,3.9,8,3.9,13.5c0,5.1-0.6,9.3-1.9,12.6
		c-1.9,4.9-5.3,8.8-10.2,11.5C818.9,223.6,810.5,225.3,799.7,225.3"/>
	<path id="path262_00000040539725259785002560000000104536078337756091_" class="st0" d="M849.6,153.9h20.8v71.4h-20.8V153.9z
		 M849.6,130.8h20.8v16.7h-20.8V130.8"/>
	<path id="path264_00000044878880099605280790000014708922124068823951_" class="st0" d="M909.5,225.3h-21.3v-55.8h-8.8v-15.6h8.8
		v-23.1h21.3v23.1h9.7v15.6h-9.7V225.3"/>
</g>
<g>
	<linearGradient id="SVGID_1_" gradientUnits="userSpaceOnUse" x1="0.6089" y1="149.5652" x2="303.4114" y2="149.5652">
		<stop  offset="0.2402" style="stop-color:#81D5DF"/>
		<stop  offset="0.5329" style="stop-color:#7D76BF"/>
		<stop  offset="0.5828" style="stop-color:#7C65B9"/>
		<stop  offset="0.8715" style="stop-color:#E0229A"/>
	</linearGradient>
	<path class="st1" d="M292.7,226l0.4-0.9l0.7-0.7c6.2-5.3,9.5-12.2,9.6-19.7c0-7-2.9-13.8-8.2-19.1c-6.6-6.6-16.4-10.3-27.4-10.3
		c-7.2,0-15,1.5-23,4.5c-9.3,3.5-19.8,8.3-28.2,12.3c1.7,1.7,3.5,3.3,5.3,4.9l0.3,0.3c0.8,0.7,1.6,1.4,2.4,2.1
		c4.2,3.6,8.3,6.8,12.2,9.5c6.4-2.5,12.9-4.7,19.9-6.7c2.4-0.7,4.6-1.1,6.7-1.2l0.1,0l0,0l0.1,0c0.1,0,0.3,0,0.4-0.1c0,0,0,0,0,0
		l0.3,0l0,0.1c0.3,0,0.6,0,0.9,0c5.8,0,10.3,2.1,12.8,5.9c1.3,2.1,2,4.5,1.8,7c-0.4,6.2-5.8,12.8-16.7,12.8c-1.8,0-3.8-0.2-5.8-0.6
		c-5.6-1.1-11.8-3.6-18.4-7.4c-0.3-0.2-0.5-0.3-0.8-0.5l-0.4-0.2c-0.3-0.2-0.6-0.4-0.9-0.5l-0.4-0.2c-0.3-0.2-0.6-0.4-1-0.6
		l-0.3-0.2c-14-9.1-29.4-23.8-45.8-43.7C126.2,96,85.6,63.3,53.5,63.3c-8.4,0-16.3,2.2-24.3,6.8C5.3,83.8-14.4,131,16.3,191.4
		c0.6,1.1,0.5,2.5,1.1,3.6l1.3,2.7c0,0-1.1-7.8-1.1-19c0-24.7,5.6-65.6,41.4-72.6c2-0.4,4.1-0.6,6.2-0.6
		c45.3,0,97.6,92.6,157.1,121.6l0,0c10.9,5.3,22.1,8.5,33.5,8.6c0.1,0,0.1,0,0.2,0c0.2,0,0.4,0,0.7,0
		C273.2,235.8,285,231.9,292.7,226C292.7,226,292.7,226,292.7,226L292.7,226C292.7,226,292.7,226,292.7,226
		C292.7,226,292.7,226,292.7,226z"/>
	
		<linearGradient id="SVGID_00000093137957446760089100000008858588384547137955_" gradientUnits="userSpaceOnUse" x1="215.7108" y1="200.466" x2="303.9109" y2="200.466">
		<stop  offset="0.3184" style="stop-color:#AE3AA3"/>
		<stop  offset="0.4879" style="stop-color:#EE1F99"/>
		<stop  offset="0.6628" style="stop-color:#F47A3E"/>
		<stop  offset="0.8324" style="stop-color:#F9E449"/>
	</linearGradient>
	<path style="fill:url(#SVGID_00000093137957446760089100000008858588384547137955_);" d="M267.8,174.9c-6.9,0-14.7,1.4-23.2,4.6
		c-8.6,3.2-18.4,7.6-28.9,12.6c2,1.9,3.9,3.7,5.8,5.4l0,0l0.1,0.1c0.9,0.8,1.8,1.6,2.7,2.4c0,0,0,0,0.1,0l0,0c0,0,0,0-0.1,0
		c4.5,3.9,8.7,7.1,12.5,9.7c6-2.4,12.5-4.6,20.1-6.8c2.4-0.7,4.6-1.1,6.6-1.2c0,0,0.1,0,0.1,0c0,0,0.1,0,0.1,0l0.4-0.7
		c15.5-1.7,23.7,8,23.7,8l-0.2,0.5c4.3,4.5,6.6,10.4,5.3,16.4c0,0,0,0,0,0c0,0,0,0,0,0.1c0,0,0,0.1,0,0.1v0h0c0,0,0,0,0,0
		c7.6-5.8,11.2-13.5,11.2-21.2C303.9,189.8,290.4,174.9,267.8,174.9z"/>
	<path class="st3" d="M79.1,25.4c0,14-11.4,25.4-25.4,25.4c-14,0-25.4-11.4-25.4-25.4S39.7,0,53.7,0C67.7,0,79.1,11.4,79.1,25.4z"/>
	<path class="st3" d="M289.4,151.7c0,9.4-7.6,17.1-17.1,17.1c-9.4,0-17.1-7.6-17.1-17.1c0-9.4,7.6-17.1,17.1-17.1
		C281.7,134.7,289.4,142.3,289.4,151.7z"/>
	
		<radialGradient id="SVGID_00000081642203918673915570000009059166399426629793_" cx="272.3142" cy="151.7153" r="17.062" gradientUnits="userSpaceOnUse">
		<stop  offset="0" style="stop-color:#D9115B"/>
		<stop  offset="1" style="stop-color:#F14624"/>
	</radialGradient>
	<circle style="fill:url(#SVGID_00000081642203918673915570000009059166399426629793_);" cx="272.3" cy="151.7" r="17.1"/>
	
		<radialGradient id="SVGID_00000113317789920126050080000016881249096775575441_" cx="53.7329" cy="25.3634" r="25.362" gradientUnits="userSpaceOnUse">
		<stop  offset="0" style="stop-color:#3872C1"/>
		<stop  offset="1" style="stop-color:#4FABE4"/>
	</radialGradient>
	<circle style="fill:url(#SVGID_00000113317789920126050080000016881249096775575441_);" cx="53.7" cy="25.4" r="25.4"/>
	<g>
		
			<linearGradient id="SVGID_00000141434424957189957470000007201684501548284802_" gradientUnits="userSpaceOnUse" x1="292.7505" y1="225.9104" x2="292.763" y2="225.9104">
			<stop  offset="0.2402" style="stop-color:#81D5DF"/>
			<stop  offset="0.5329" style="stop-color:#7D76BF"/>
			<stop  offset="0.5828" style="stop-color:#7C65B9"/>
			<stop  offset="0.8715" style="stop-color:#E0229A"/>
		</linearGradient>
		<path style="fill:url(#SVGID_00000141434424957189957470000007201684501548284802_);" d="M292.8,225.9L292.8,225.9
			C292.8,225.9,292.8,225.9,292.8,225.9C292.8,225.9,292.8,225.9,292.8,225.9z"/>
		
			<linearGradient id="SVGID_00000126303003240352856630000000919607413109081007_" gradientUnits="userSpaceOnUse" x1="292.727" y1="226.0425" x2="292.7272" y2="226.0425">
			<stop  offset="0.2402" style="stop-color:#81D5DF"/>
			<stop  offset="0.5329" style="stop-color:#7D76BF"/>
			<stop  offset="0.5828" style="stop-color:#7C65B9"/>
			<stop  offset="0.8715" style="stop-color:#E0229A"/>
		</linearGradient>
		<polygon style="fill:url(#SVGID_00000126303003240352856630000000919607413109081007_);" points="292.7,226 292.7,226 292.7,226 
					"/>
	</g>
	<g>
		
			<linearGradient id="SVGID_00000169537676433710010060000016241848444995119251_" gradientUnits="userSpaceOnUse" x1="292.7505" y1="225.9104" x2="292.7631" y2="225.9104">
			<stop  offset="0" style="stop-color:#4FABE4"/>
			<stop  offset="0.2903" style="stop-color:#3872C1"/>
			<stop  offset="0.6935" style="stop-color:#5C2790"/>
			<stop  offset="0.9785" style="stop-color:#EB0F65"/>
			<stop  offset="1" style="stop-color:#EB0F65"/>
		</linearGradient>
		<path style="fill:url(#SVGID_00000169537676433710010060000016241848444995119251_);" d="M292.8,225.9
			C292.8,225.9,292.8,225.9,292.8,225.9L292.8,225.9C292.8,225.9,292.8,225.9,292.8,225.9z"/>
		
			<linearGradient id="SVGID_00000043423328379667893340000013027271593736971169_" gradientUnits="userSpaceOnUse" x1="-9.094947e-13" y1="147.5413" x2="295.3752" y2="147.5413">
			<stop  offset="0" style="stop-color:#4FABE4"/>
			<stop  offset="0.2903" style="stop-color:#3872C1"/>
			<stop  offset="0.6935" style="stop-color:#5C2790"/>
			<stop  offset="0.9785" style="stop-color:#EB0F65"/>
			<stop  offset="1" style="stop-color:#EB0F65"/>
		</linearGradient>
		<path style="fill:url(#SVGID_00000043423328379667893340000013027271593736971169_);" d="M291.3,210.9l-2.6-1.9l-1.2,0.4
			c1.2,9.5-6.4,17.5-20.2,17.5c-3,0-6.4-0.4-10-1.2c-5.2-1-11.3-3.3-18.3-7.4c-0.3-0.2-0.5-0.3-0.8-0.5c-0.1-0.1-0.3-0.2-0.4-0.2
			c-0.3-0.2-0.6-0.4-0.9-0.5c-0.1-0.1-0.2-0.2-0.4-0.2c-0.3-0.2-0.6-0.4-1-0.6l-0.3-0.2c-12.6-8.1-27.8-21.9-45.7-43.6
			C125.1,94,85,62.8,53.5,62.8c-8.7,0-16.8,2.4-24.5,6.8c-22.5,12.9-46.8,62-10.2,128.1c0,0-14.5-40-1.9-79.8
			C23,98.7,38.2,87.8,58,87.8c21.2,0,47.6,12.7,73.7,41.4c41.5,45.9,86.7,103.1,134.5,103.1c8.8,0,17.7-1.9,26.6-6.2h0c0,0,0,0,0,0
			v0l0,0v0v0l0,0l0,0h0c0,0,0,0,0,0l0,0l0,0c0,0,0-0.1,0-0.1c0,0,0,0,0,0l0,0c0,0,0,0,0,0c0,0,0,0,0,0c0,0,0,0,0-0.1l0.4-1.7
			l0.3-3.1v-4.4L291.3,210.9z"/>
	</g>
	
		<linearGradient id="path58_00000033360984409350712780000014178730939744567226_" gradientUnits="userSpaceOnUse" x1="3.1217" y1="298.7483" x2="4.1217" y2="298.7483" gradientTransform="matrix(-86.1511 46.1968 46.1968 86.1511 -13237.6699 -25688.082)">
		<stop  offset="0" style="stop-color:#F8A62D"/>
		<stop  offset="0.2043" style="stop-color:#F14624"/>
		<stop  offset="0.3925" style="stop-color:#D9115B"/>
		<stop  offset="0.5753" style="stop-color:#8A1A8E"/>
		<stop  offset="1" style="stop-color:#8A1A8E"/>
	</linearGradient>
	
		<path id="path58_00000152251927889147516540000004950722882598564230_" style="fill:url(#path58_00000033360984409350712780000014178730939744567226_);" d="
		M292.7,226C292.7,226,292.7,226,292.7,226c0-0.1,0-0.1,0-0.1c0,0,0,0,0,0c2.7-12.5-9.8-24.2-24.1-24.6c0,0,0,0,0,0c0,0,0,0,0,0
		c0,0,0,0,0,0c0,0,0,0,0,0c0,0,0,0,0,0c0,0,0,0,0,0c0,0,0,0,0,0c0,0,0,0,0,0c0,0,0,0,0,0c0,0,0,0,0,0c0,0,0,0,0,0c0,0,0,0,0,0
		c0,0,0,0,0,0c0,0,0,0,0,0c0,0,0,0,0,0c0,0,0,0,0,0c0,0,0,0,0,0c0,0,0,0,0,0c0,0,0,0,0,0c0,0,0,0,0,0c0,0,0,0,0,0c0,0,0,0,0,0
		c0,0,0,0,0,0c0,0,0,0,0,0c0,0,0,0,0,0c0,0,0,0,0,0c0,0,0,0,0,0c0,0,0,0,0,0c0,0,0,0,0,0c0,0,0,0,0,0c0,0,0,0,0,0c0,0,0,0,0,0
		c0,0,0,0,0,0c0,0,0,0,0,0c0,0,0,0-0.1,0c-1.4,0-2.8,0.1-4.2,0.3c0,0,0,0,0,0c0,0-0.1,0-0.1,0c0,0-0.1,0-0.1,0l0,0
		c-2,0.1-4.2,0.5-6.6,1.2c-7.6,2.1-14.1,4.4-20.1,6.8c-3.8-2.6-7.9-5.8-12.5-9.7c19.3-7.8,33.7-11,44.2-11
		C295.8,188.9,297.7,210.1,292.7,226L292.7,226"/>
	<g>
		
			<linearGradient id="SVGID_00000176002179227390632800000008077737296265736083_" gradientUnits="userSpaceOnUse" x1="38.469" y1="219.71" x2="203.8078" y2="219.71">
			<stop  offset="0.1229" style="stop-color:#F4F35A"/>
			<stop  offset="0.1959" style="stop-color:#F79340"/>
			<stop  offset="0.3813" style="stop-color:#EE1F99"/>
			<stop  offset="0.464" style="stop-color:#E4239B"/>
			<stop  offset="0.6064" style="stop-color:#C82F9F"/>
			<stop  offset="0.7067" style="stop-color:#B039A3"/>
		</linearGradient>
		<path style="fill:url(#SVGID_00000176002179227390632800000008077737296265736083_);" d="M39,188.7c-1,10.4-1.7,34.4,11.7,50.6
			c9.1,11,23.1,16.6,41.5,16.6c9.8,0,21-1.6,33.3-4.7c39.1-10,60.8-18.9,78.3-27.1c-3-2-6.1-4.2-9.2-6.5l0,0
			c-1.2-0.9-2.4-1.9-3.6-2.9l0.3-0.3h0c-2.7-2.1-5.4-4.3-8.1-6.6c0,0-0.1-0.1-0.1-0.1c-32.8,15.6-68,30.6-95.4,30.6
			c-26.4,0-45.6-13.9-48.5-54.8l0,0c0,0,0,0,0,0l0,0l-0.3,4.1C38.8,187.9,39,188.7,39,188.7z"/>
		
			<linearGradient id="SVGID_00000085238529656628031640000001101947600710906002_" gradientUnits="userSpaceOnUse" x1="39.1521" y1="183.5262" x2="39.1522" y2="183.5262">
			<stop  offset="0.1229" style="stop-color:#F4F35A"/>
			<stop  offset="0.1959" style="stop-color:#F79340"/>
			<stop  offset="0.3813" style="stop-color:#EE1F99"/>
			<stop  offset="0.464" style="stop-color:#E4239B"/>
			<stop  offset="0.6064" style="stop-color:#C82F9F"/>
			<stop  offset="0.7067" style="stop-color:#B039A3"/>
		</linearGradient>
		<polygon style="fill:url(#SVGID_00000085238529656628031640000001101947600710906002_);" points="39.2,183.5 39.2,183.5 
			39.2,183.5 		"/>
	</g>
	
		<linearGradient id="path36_00000047054331673801598330000000384479583505136819_" gradientUnits="userSpaceOnUse" x1="-3.7653" y1="298.2263" x2="-2.7653" y2="298.2263" gradientTransform="matrix(166.9 0 0 -166.9 666.3654 49993.9219)">
		<stop  offset="0" style="stop-color:#F8A62D"/>
		<stop  offset="0.2043" style="stop-color:#F14624"/>
		<stop  offset="0.3925" style="stop-color:#D9115B"/>
		<stop  offset="0.5753" style="stop-color:#8A1A8E"/>
		<stop  offset="1" style="stop-color:#8A1A8E"/>
	</linearGradient>
	
		<path id="path36_00000139268459288647408420000007942947449341542820_" style="fill:url(#path36_00000047054331673801598330000000384479583505136819_);" d="
		M92.2,256.4c-67.1,0-53-72.9-53-72.9c2.9,40.9,2.9,40.9,0,0c0,0-3.2,52.6,31.1,61.3c5.6,1.4,11.5,2.1,17.7,2.1
		c31,0,68-16.5,103.3-32.5c1.2,0.9,2.4,1.9,3.6,2.8c3.3,2.5,6.6,4.8,9.9,7c-17.3,8.1-39.1,17.3-79.2,27.5
		C112.7,255,101.6,256.4,92.2,256.4"/>
</g>
</svg>
