<?xml version="1.0" encoding="utf-8"?>
<!-- Generator: Adobe Illustrator 27.3.1, SVG Export Plug-In . SVG Version: 6.00 Build 0)  -->
<svg version="1.1" id="Layer_1" xmlns="http://www.w3.org/2000/svg" xmlns:xlink="http://www.w3.org/1999/xlink" x="0px" y="0px"
	 viewBox="0 0 548.4 403.9" style="enable-background:new 0 0 548.4 403.9;" xml:space="preserve">
<style type="text/css">
	.st0{fill:url(#SVGID_1_);}
	.st1{fill:url(#SVGID_00000047055713975142010780000010655160184668234657_);}
	.st2{fill:none;}
	.st3{fill:#FFFFFF;}
	.st4{fill:url(#SVGID_00000056415989955461893520000013449696539919400629_);}
	.st5{fill:url(#SVGID_00000169529811366698170130000010219315037649840309_);}
	.st6{fill:url(#SVGID_00000031170200613938197550000007463412768464870591_);}
	.st7{fill:url(#SVGID_00000137092669113116846480000015540041331859039108_);}
	.st8{fill:url(#SVGID_00000055687188322496397800000014418638106693439926_);}
	.st9{fill:url(#SVGID_00000055685829438576645870000004640092326507710622_);}
	.st10{fill:url(#path58_00000002374193451481366440000004215616609163066767_);}
	.st11{fill:url(#SVGID_00000108282047769202025750000005276341364143591047_);}
	.st12{fill:url(#SVGID_00000002366675722955796390000017508264664475049609_);}
	.st13{fill:url(#path36_00000057859929793026133920000012363155747087424152_);}
</style>
<linearGradient id="SVGID_1_" gradientUnits="userSpaceOnUse" x1="122.8659" y1="149.5652" x2="425.6684" y2="149.5652">
	<stop  offset="0.2402" style="stop-color:#81D5DF"/>
	<stop  offset="0.5329" style="stop-color:#7D76BF"/>
	<stop  offset="0.5828" style="stop-color:#7C65B9"/>
	<stop  offset="0.8715" style="stop-color:#E0229A"/>
</linearGradient>
<path class="st0" d="M415,226l0.4-0.9l0.7-0.7c6.2-5.3,9.5-12.2,9.6-19.7c0-7-2.9-13.8-8.2-19.1c-6.6-6.6-16.4-10.3-27.4-10.3
	c-7.2,0-15,1.5-23,4.5c-9.3,3.5-19.8,8.3-28.2,12.3c1.7,1.7,3.5,3.3,5.3,4.9l0.3,0.3c0.8,0.7,1.6,1.4,2.4,2.1
	c4.2,3.6,8.3,6.8,12.2,9.5c6.4-2.5,12.9-4.7,19.9-6.7c2.4-0.7,4.6-1.1,6.7-1.2l0.1,0l0,0l0.1,0c0.1,0,0.3,0,0.4-0.1c0,0,0,0,0,0
	l0.3,0l0,0.1c0.3,0,0.6,0,0.9,0c5.8,0,10.3,2.1,12.8,5.9c1.3,2.1,2,4.5,1.8,7c-0.4,6.2-5.8,12.8-16.7,12.8c-1.8,0-3.8-0.2-5.8-0.6
	c-5.6-1.1-11.8-3.6-18.4-7.4c-0.3-0.2-0.5-0.3-0.8-0.5l-0.4-0.2c-0.3-0.2-0.6-0.4-0.9-0.5l-0.4-0.2c-0.3-0.2-0.6-0.4-1-0.6l-0.3-0.2
	c-14-9.1-29.4-23.8-45.8-43.7C248.4,96,207.8,63.3,175.8,63.3c-8.4,0-16.3,2.2-24.3,6.8c-23.9,13.7-43.6,61-12.9,121.3
	c0.6,1.1,0.5,2.5,1.1,3.6l1.3,2.7c0,0-1.1-7.8-1.1-19c0-24.7,5.6-65.6,41.4-72.6c2-0.4,4.1-0.6,6.2-0.6
	c45.3,0,97.6,92.6,157.1,121.6l0,0c10.9,5.3,22.1,8.5,33.5,8.6c0.1,0,0.1,0,0.2,0c0.2,0,0.4,0,0.7,0
	C395.4,235.8,407.3,231.9,415,226C415,226,415,226,415,226L415,226C415,226,415,226,415,226C415,226,415,226,415,226z"/>
<linearGradient id="SVGID_00000053518535094205529260000000519518193157161357_" gradientUnits="userSpaceOnUse" x1="337.9679" y1="200.466" x2="426.1679" y2="200.466">
	<stop  offset="0.3184" style="stop-color:#AE3AA3"/>
	<stop  offset="0.4879" style="stop-color:#EE1F99"/>
	<stop  offset="0.6628" style="stop-color:#F47A3E"/>
	<stop  offset="0.8324" style="stop-color:#F9E449"/>
</linearGradient>
<path style="fill:url(#SVGID_00000053518535094205529260000000519518193157161357_);" d="M390,174.9c-6.9,0-14.7,1.4-23.2,4.6
	c-8.6,3.2-18.4,7.6-28.9,12.6c2,1.9,3.9,3.7,5.8,5.4l0,0l0.1,0.1c0.9,0.8,1.8,1.6,2.7,2.4c0,0,0,0,0.1,0l0,0c0,0,0,0-0.1,0
	c4.5,3.9,8.7,7.1,12.5,9.7c6-2.4,12.5-4.6,20.1-6.8c2.4-0.7,4.6-1.1,6.6-1.2c0,0,0.1,0,0.1,0c0,0,0.1,0,0.1,0l0.4-0.7
	c15.5-1.7,23.7,8,23.7,8l-0.2,0.5c4.3,4.5,6.6,10.4,5.3,16.4c0,0,0,0,0,0c0,0,0,0,0,0.1c0,0,0,0.1,0,0.1v0h0c0,0,0,0,0,0
	c7.6-5.8,11.2-13.5,11.2-21.2C426.2,189.8,412.7,174.9,390,174.9z"/>
<path class="st2" d="M201.4,25.4c0,14-11.4,25.4-25.4,25.4c-14,0-25.4-11.4-25.4-25.4S162,0,176,0C190,0,201.4,11.4,201.4,25.4z"/>
<path class="st2" d="M411.6,151.7c0,9.4-7.6,17.1-17.1,17.1c-9.4,0-17.1-7.6-17.1-17.1c0-9.4,7.6-17.1,17.1-17.1
	C404,134.7,411.6,142.3,411.6,151.7z"/>
<path id="path244" class="st3" d="M9.8,378.4H0v-98.3h9.8V378.4"/>
<path id="path246" class="st3" d="M93.4,378.4h-9.8v-38.2c0-8.7-1.9-15.4-5.8-20.1c-3.9-4.7-9.7-7.1-17.3-7.1
	c-6.1,0-11.1,1.7-14.9,5c-5,4.4-7.4,11.3-7.4,20.6v39.8h-9.8v-72.6h9.3v10.5c2.8-4,6.3-7,10.5-9.1c4.2-2.1,8.7-3.1,13.5-3.1
	c9.1,0,16.5,2.7,22,8.2c6.5,6.4,9.7,15.7,9.7,27.9V378.4"/>
<path id="path248" class="st3" d="M141.8,314.6h-18.1v63.7h-9.8v-63.7h-11.3v-8.9h11.3v-1.5c0-7.3,2.3-13.1,6.9-17.5
	c4.6-4.4,10.9-6.6,19-6.6h2v8.9h-2c-2.4,0-4.5,0.3-6.2,0.8c-6.6,1.9-9.8,6.8-9.8,14.5v1.5h18.1V314.6"/>
<path id="path250" class="st3" d="M160.8,378.4H151v-72.6h9.8V378.4z M160.8,296.8H151v-16.7h9.8V296.8"/>
<path id="path252" class="st3" d="M242.6,378.4h-9.8v-38.2c0-8.7-1.9-15.4-5.8-20.1c-3.9-4.7-9.6-7.1-17.3-7.1
	c-6.1,0-11.1,1.7-14.9,5c-5,4.4-7.4,11.3-7.4,20.6v39.8h-9.8v-72.6h9.3v10.5c2.8-4,6.3-7,10.5-9.1c4.2-2.1,8.7-3.1,13.5-3.1
	c9.1,0,16.5,2.7,22,8.2c6.5,6.4,9.7,15.7,9.7,27.9V378.4"/>
<path id="path254" class="st3" d="M268.4,378.4h-9.8v-72.6h9.8V378.4z M268.4,296.8h-9.8v-16.7h9.8V296.8"/>
<path id="path256" class="st3" d="M322,314.6h-16.9v63.7h-9.8v-63.7h-15.1v-8.9h15.1v-25.6h9.8v25.6H322V314.6"/>
<path id="path258" class="st3" d="M392,305.7l-42,98.1h-10.5l12.1-28.8l-28.6-69.3h11.7l22.8,56.6l23.9-56.6H392"/>
<path id="path260" class="st3" d="M422.8,338.6v20.1c0.3,0.1,0.8,0.3,1.6,0.4c0.8,0.2,2,0.2,3.6,0.2c4.1,0,7.5-0.7,10.1-2.1
	c3.6-2,5.4-5.2,5.4-9.7c0-3.5-1.1-5.7-3.2-6.8C437.6,339.3,431.8,338.6,422.8,338.6L422.8,338.6z M422.8,303.5v16.9h2.5
	c5.7,0,9.6-0.4,11.5-1.2c2.7-1.1,4-3.5,4-7.3c0-3.5-1.2-5.8-3.6-6.8C434.9,304.1,430.1,303.5,422.8,303.5L422.8,303.5z M429,378.4
	h-28.5v-94.5h32.2c9.5,0,16.7,2.1,21.7,6.2c5,4.1,7.5,10,7.5,17.6v1.7c0,3.2-0.6,5.9-1.7,8.2c-1.8,3.7-5.1,7-10,9.7
	c5.7,2.2,9.9,5,12.5,8.5c2.6,3.5,3.9,8,3.9,13.5c0,5.1-0.6,9.3-1.9,12.6c-1.9,4.9-5.3,8.8-10.2,11.5
	C448.2,376.7,439.8,378.4,429,378.4"/>
<path id="path262" class="st3" d="M478.9,307h20.8v71.4h-20.8V307z M478.9,283.8h20.8v16.7h-20.8V283.8"/>
<path id="path264" class="st3" d="M538.8,378.4h-21.3v-55.8h-8.8V307h8.8v-23.1h21.3V307h9.7v15.6h-9.7V378.4"/>
<radialGradient id="SVGID_00000072257101587361834870000010850924329510290108_" cx="394.5713" cy="151.7153" r="17.062" gradientUnits="userSpaceOnUse">
	<stop  offset="0" style="stop-color:#D9115B"/>
	<stop  offset="1" style="stop-color:#F14624"/>
</radialGradient>
<circle style="fill:url(#SVGID_00000072257101587361834870000010850924329510290108_);" cx="394.6" cy="151.7" r="17.1"/>
<radialGradient id="SVGID_00000103248187775718941660000001182713412811897791_" cx="175.99" cy="25.3634" r="25.362" gradientUnits="userSpaceOnUse">
	<stop  offset="0" style="stop-color:#3872C1"/>
	<stop  offset="1" style="stop-color:#4FABE4"/>
</radialGradient>
<circle style="fill:url(#SVGID_00000103248187775718941660000001182713412811897791_);" cx="176" cy="25.4" r="25.4"/>
<g>
	
		<linearGradient id="SVGID_00000171714613306828039450000003280028084600021908_" gradientUnits="userSpaceOnUse" x1="415.0075" y1="225.9104" x2="415.02" y2="225.9104">
		<stop  offset="0.2402" style="stop-color:#81D5DF"/>
		<stop  offset="0.5329" style="stop-color:#7D76BF"/>
		<stop  offset="0.5828" style="stop-color:#7C65B9"/>
		<stop  offset="0.8715" style="stop-color:#E0229A"/>
	</linearGradient>
	<path style="fill:url(#SVGID_00000171714613306828039450000003280028084600021908_);" d="M415,225.9L415,225.9
		C415,225.9,415,225.9,415,225.9C415,225.9,415,225.9,415,225.9z"/>
	
		<linearGradient id="SVGID_00000084509500702657418880000017395427333603771568_" gradientUnits="userSpaceOnUse" x1="414.984" y1="226.0425" x2="414.9843" y2="226.0425">
		<stop  offset="0.2402" style="stop-color:#81D5DF"/>
		<stop  offset="0.5329" style="stop-color:#7D76BF"/>
		<stop  offset="0.5828" style="stop-color:#7C65B9"/>
		<stop  offset="0.8715" style="stop-color:#E0229A"/>
	</linearGradient>
	<polygon style="fill:url(#SVGID_00000084509500702657418880000017395427333603771568_);" points="415,226 415,226 415,226 	"/>
</g>
<g>
	
		<linearGradient id="SVGID_00000111913572907170380780000003181790616749639066_" gradientUnits="userSpaceOnUse" x1="415.0075" y1="225.9104" x2="415.0201" y2="225.9104">
		<stop  offset="0" style="stop-color:#4FABE4"/>
		<stop  offset="0.2903" style="stop-color:#3872C1"/>
		<stop  offset="0.6935" style="stop-color:#5C2790"/>
		<stop  offset="0.9785" style="stop-color:#EB0F65"/>
		<stop  offset="1" style="stop-color:#EB0F65"/>
	</linearGradient>
	<path style="fill:url(#SVGID_00000111913572907170380780000003181790616749639066_);" d="M415,225.9C415,225.9,415,225.9,415,225.9
		L415,225.9C415,225.9,415,225.9,415,225.9z"/>
	
		<linearGradient id="SVGID_00000143615184705035607370000007464452299371210376_" gradientUnits="userSpaceOnUse" x1="122.2571" y1="147.5413" x2="417.6322" y2="147.5413">
		<stop  offset="0" style="stop-color:#4FABE4"/>
		<stop  offset="0.2903" style="stop-color:#3872C1"/>
		<stop  offset="0.6935" style="stop-color:#5C2790"/>
		<stop  offset="0.9785" style="stop-color:#EB0F65"/>
		<stop  offset="1" style="stop-color:#EB0F65"/>
	</linearGradient>
	<path style="fill:url(#SVGID_00000143615184705035607370000007464452299371210376_);" d="M413.5,210.9l-2.6-1.9l-1.2,0.4
		c1.2,9.5-6.4,17.5-20.2,17.5c-3,0-6.4-0.4-10-1.2c-5.2-1-11.3-3.3-18.3-7.4c-0.3-0.2-0.5-0.3-0.8-0.5c-0.1-0.1-0.3-0.2-0.4-0.2
		c-0.3-0.2-0.6-0.4-0.9-0.5c-0.1-0.1-0.2-0.2-0.4-0.2c-0.3-0.2-0.6-0.4-1-0.6l-0.3-0.2c-12.6-8.1-27.8-21.9-45.7-43.6
		C247.4,94,207.3,62.8,175.8,62.8c-8.7,0-16.8,2.4-24.5,6.8c-22.5,12.9-46.8,62-10.2,128.1c0,0-14.5-40-1.9-79.8
		c6.1-19.2,21.3-30.2,41.1-30.2c21.2,0,47.6,12.7,73.7,41.4c41.5,45.9,86.7,103.1,134.5,103.1c8.8,0,17.7-1.9,26.6-6.2h0
		c0,0,0,0,0,0v0l0,0v0v0l0,0l0,0h0c0,0,0,0,0,0l0,0l0,0c0,0,0-0.1,0-0.1c0,0,0,0,0,0l0,0c0,0,0,0,0,0c0,0,0,0,0,0c0,0,0,0,0-0.1
		l0.4-1.7l0.3-3.1v-4.4L413.5,210.9z"/>
</g>
<linearGradient id="path58_00000176026795290144664510000013465995962667073413_" gradientUnits="userSpaceOnUse" x1="-136.2961" y1="428.5654" x2="-135.2961" y2="428.5654" gradientTransform="matrix(-86.1511 46.1968 46.1968 86.1511 -31123.5371 -30431.3066)">
	<stop  offset="0" style="stop-color:#F8A62D"/>
	<stop  offset="0.2043" style="stop-color:#F14624"/>
	<stop  offset="0.3925" style="stop-color:#D9115B"/>
	<stop  offset="0.5753" style="stop-color:#8A1A8E"/>
	<stop  offset="1" style="stop-color:#8A1A8E"/>
</linearGradient>
<path id="path58" style="fill:url(#path58_00000176026795290144664510000013465995962667073413_);" d="M415,226
	C415,226,415,226,415,226c0-0.1,0-0.1,0-0.1c0,0,0,0,0,0c2.7-12.5-9.8-24.2-24.1-24.6c0,0,0,0,0,0c0,0,0,0,0,0c0,0,0,0,0,0
	c0,0,0,0,0,0c0,0,0,0,0,0c0,0,0,0,0,0c0,0,0,0,0,0c0,0,0,0,0,0c0,0,0,0,0,0c0,0,0,0,0,0c0,0,0,0,0,0c0,0,0,0,0,0c0,0,0,0,0,0
	c0,0,0,0,0,0c0,0,0,0,0,0c0,0,0,0,0,0c0,0,0,0,0,0c0,0,0,0,0,0c0,0,0,0,0,0c0,0,0,0,0,0c0,0,0,0,0,0c0,0,0,0,0,0c0,0,0,0,0,0
	c0,0,0,0,0,0c0,0,0,0,0,0s0,0,0,0c0,0,0,0,0,0c0,0,0,0,0,0c0,0,0,0,0,0c0,0,0,0,0,0c0,0,0,0,0,0c0,0,0,0,0,0c0,0,0,0,0,0
	c0,0,0,0,0,0c0,0,0,0-0.1,0c-1.4,0-2.8,0.1-4.2,0.3c0,0,0,0,0,0c0,0-0.1,0-0.1,0c0,0-0.1,0-0.1,0l0,0c-2,0.1-4.2,0.5-6.6,1.2
	c-7.6,2.1-14.1,4.4-20.1,6.8c-3.8-2.6-7.9-5.8-12.5-9.7c19.3-7.8,33.7-11,44.2-11C418.1,188.9,420,210.1,415,226L415,226"/>
<g>
	
		<linearGradient id="SVGID_00000043438977960778711570000004810571817505695368_" gradientUnits="userSpaceOnUse" x1="160.7261" y1="219.71" x2="326.0649" y2="219.71">
		<stop  offset="0.1229" style="stop-color:#F4F35A"/>
		<stop  offset="0.1959" style="stop-color:#F79340"/>
		<stop  offset="0.3813" style="stop-color:#EE1F99"/>
		<stop  offset="0.464" style="stop-color:#E4239B"/>
		<stop  offset="0.6064" style="stop-color:#C82F9F"/>
		<stop  offset="0.7067" style="stop-color:#B039A3"/>
	</linearGradient>
	<path style="fill:url(#SVGID_00000043438977960778711570000004810571817505695368_);" d="M161.2,188.7c-1,10.4-1.7,34.4,11.7,50.6
		c9.1,11,23.1,16.6,41.5,16.6c9.8,0,21-1.6,33.3-4.7c39.1-10,60.8-18.9,78.3-27.1c-3-2-6.1-4.2-9.2-6.5l0,0
		c-1.2-0.9-2.4-1.9-3.6-2.9l0.3-0.3h0c-2.7-2.1-5.4-4.3-8.1-6.6c0,0-0.1-0.1-0.1-0.1c-32.8,15.6-68,30.6-95.4,30.6
		c-26.4,0-45.6-13.9-48.5-54.8l0,0c0,0,0,0,0,0l0,0l-0.3,4.1C161.1,187.9,161.2,188.7,161.2,188.7z"/>
	
		<linearGradient id="SVGID_00000085940299436266509410000017620330589536796580_" gradientUnits="userSpaceOnUse" x1="161.4091" y1="183.5262" x2="161.4093" y2="183.5262">
		<stop  offset="0.1229" style="stop-color:#F4F35A"/>
		<stop  offset="0.1959" style="stop-color:#F79340"/>
		<stop  offset="0.3813" style="stop-color:#EE1F99"/>
		<stop  offset="0.464" style="stop-color:#E4239B"/>
		<stop  offset="0.6064" style="stop-color:#C82F9F"/>
		<stop  offset="0.7067" style="stop-color:#B039A3"/>
	</linearGradient>
	<polygon style="fill:url(#SVGID_00000085940299436266509410000017620330589536796580_);" points="161.4,183.5 161.4,183.5 
		161.4,183.5 	"/>
</g>
<linearGradient id="path36_00000160900800365519046180000005927843745338565816_" gradientUnits="userSpaceOnUse" x1="-138.6734" y1="428.7396" x2="-137.6734" y2="428.7396" gradientTransform="matrix(166.9 0 0 -166.9 23304.7852 71776.5938)">
	<stop  offset="0" style="stop-color:#F8A62D"/>
	<stop  offset="0.2043" style="stop-color:#F14624"/>
	<stop  offset="0.3925" style="stop-color:#D9115B"/>
	<stop  offset="0.5753" style="stop-color:#8A1A8E"/>
	<stop  offset="1" style="stop-color:#8A1A8E"/>
</linearGradient>
<path id="path36_00000021081763658905332340000005730307613929871243_" style="fill:url(#path36_00000160900800365519046180000005927843745338565816_);" d="
	M214.5,256.4c-67.1,0-53-72.9-53-72.9c2.9,40.9,2.9,40.9,0,0c0,0-3.2,52.6,31.1,61.3c5.6,1.4,11.5,2.1,17.7,2.1
	c31,0,68-16.5,103.3-32.5c1.2,0.9,2.4,1.9,3.6,2.8c3.3,2.5,6.6,4.8,9.9,7c-17.3,8.1-39.1,17.3-79.2,27.5
	C234.9,255,223.9,256.4,214.5,256.4"/>
</svg>
